<?xml version="1.0" encoding="utf-8"?>
<!-- Generator: Adobe Illustrator 24.0.1, SVG Export Plug-In . SVG Version: 6.00 Build 0)  -->
<svg version="1.1" id="Layer_1" xmlns="http://www.w3.org/2000/svg" xmlns:xlink="http://www.w3.org/1999/xlink" x="0px" y="0px"
	 viewBox="0 0 1285 127" style="enable-background:new 0 0 1285 127;" xml:space="preserve">
<style type="text/css">
	.st0{fill:#FFFFFF;}
</style>
<g>
	<path class="st0" d="M1285,63.8c0,20.7,0,41.5,0,62.2c-433,0-866,0-1299,0c0-42,0-84,0-126c410,0,820,0,1230,0
		c-0.4,0.6-1.2,1.2-1.2,1.8c-0.1,5-0.2,10,0,14.9c0,0.7,1.7,1.8,2.7,1.8c18.3,0.1,36.7,0.1,55,0c1,0,2.9-1.3,2.9-2
		c-0.1-5.5-0.6-11-0.9-16.6c3.5,0,7,0,10.5,0c0,20.5,0,41,0,61.5c-0.5-1.1-1.2-2.2-1.6-3.3c-3.5-9.7-7.1-19.5-10.5-29.3
		c-1.1-3.1-2.8-4.3-6.1-4.2c-14.4,0.1-28.7,0.2-43.1,0c-3.8-0.1-5.7,1.2-6.9,4.8c-3.3,9.8-6.8,19.6-10.5,29.2
		c-1.2,3.2-1,5.9,0.5,8.9c8.5,17.3,16.8,34.6,25.2,51.9c0.6,1.2,1,2.4,1.8,4.2c-13.1,0-25.5,0-38,0c14.1,0.8,28.2,0.7,42.2,0.8
		c3.9,0,4.8-1.5,4.7-5.1c-0.4-16.7-0.6-33.5-0.8-50.2c0-3.2-1.1-5.5-3.2-8c-1.9-2.2-3.4-5.3-3.7-8.2c-0.4-4.5,3.4-8.6,7.6-9.5
		c4.1-0.9,8.4,0.9,10.7,4.5c2.5,4.1,2.5,8.6-1.1,12c-3.5,3.3-4.2,6.9-4.2,11.4c-0.1,15.9-0.5,31.7-0.7,47.6c-0.1,5.1,2.2,7,6.9,5.1
		c1.5-0.6,2.8-2.5,3.5-4C1266.9,101.3,1275.9,82.5,1285,63.8z M1017.1,123.9c0-37,0-73.5,0-109.9c-0.3-0.1-0.5-0.2-0.8-0.4
		c-17.1,30.5-34.2,61.1-51.7,92.2c-9-16-17.5-31.3-26-46.5c-8.5-15.2-17-30.5-25.5-45.7c-1.7,30.2-0.9,108.8,1.2,111.3
		c0-26.3,0-51.8,0-77.4c1.2,0.4,1.6,0.9,1.9,1.4c13.4,23.7,26.8,47.4,40.2,71c0.6,1.1,1.6,2.1,2.4,3.2c0.9-1,2.2-1.9,2.8-3.1
		c12.7-23.6,25.4-47.2,38.1-70.9c0.6-1.2,1.4-2.4,2-3.5c0.3,0.1,0.6,0.2,0.9,0.3c0,26,0,52.1,0,77.9
		C1007.6,123.9,1012.2,123.9,1017.1,123.9z M1117.6,122.8c0-2,0-3.5,0-5c0-33,0.1-66-0.1-99c0-4,1.4-5.1,4.9-4.7
		c6.9,0.8,14,0.8,20.8,2.4c20.5,4.6,34,14.1,37.4,36.7c2.9,19-8,36.9-26.4,42.5c-2.4,0.7-3.8,0.3-5.8-1.6c-3.4-3.3-7.4-6.3-11.6-8.5
		c-4.2-2.2-10.3,0-11.4,3.3c-1.4,4.6,1.5,9.3,6.8,10.7c1.6,0.4,3.2,0.7,4.8,0.7c2.6,0,5.2-0.2,7.8-0.5c3.5-0.4,6,0.5,8.2,3.7
		c3.3,4.8,7.2,9.3,11.3,13.5c5.2,5.3,11.8,7.5,19.3,7c-16.1-1.3-23.6-12.9-31.3-25.1c2.2-1,3.8-1.7,5.4-2.4
		c17.8-8.5,27.1-24.7,24.9-43.3c-2.1-18.1-16.2-34-34.3-37.6c-9.5-1.9-19.3-2.5-29-3.3c-5.2-0.4-10.4-0.1-15.5-0.1
		c0,37.2,0,73.8,0,110.6C1108.5,122.8,1112.8,122.8,1117.6,122.8z M197.7,124.3c-16.5-37.6-32.7-74.6-49.1-112
		c-0.8,1.7-1.3,2.9-1.8,4c-8.8,21.1-17.6,42.1-26.3,63.2c-1.2,3-2.8,4-5.8,3.8c-4-0.2-8-0.1-12.1-0.1c0,0.5,0,1.1,0,1.6
		c5,0,9.9,0,15.7,0c-5.8,13.7-11.2,26.4-16.6,39.1c0.4,0.2,0.8,0.4,1.3,0.6c0.6-1.1,1.3-2.1,1.8-3.3c4.8-11,9.7-21.9,14.4-32.9
		c1-2.4,2.3-3.3,5-3.3c12.6,0.1,25.2,0.2,37.9,0c2.9,0,4.1,1.1,5.2,3.6c4.6,10.9,9.3,21.8,14.1,32.6c0.5,1.2,2,2.8,3.1,2.9
		C188.5,124.5,192.8,124.3,197.7,124.3z M473,124.3c-16.5-37.6-32.7-74.6-49.1-112c-0.8,1.7-1.3,2.7-1.7,3.7
		c-8.8,21.1-17.6,42.1-26.3,63.2c-1.2,3-2.7,4.3-6,4.1c-4-0.3-8-0.1-12-0.1c0,0.6,0,1.1,0,1.7c5,0,10,0,15.7,0
		c-5.8,13.7-11.2,26.3-16.6,39c0.3,0.2,0.6,0.4,1,0.6c0.7-1,1.5-1.9,1.9-2.9c4.9-11.1,9.8-22.1,14.5-33.3c1-2.5,2.4-3.3,5-3.2
		c12.5,0.1,25,0.2,37.5,0c3,0,4.4,0.9,5.5,3.6c4.5,10.9,9.3,21.8,14.1,32.6c0.5,1.2,2,2.8,3.1,2.8
		C463.8,124.5,468.1,124.3,473,124.3z M904.9,124.3c-16.4-37.5-32.7-74.5-49.1-112c-0.8,1.9-1.4,3-1.9,4.2
		c-8.6,20.7-17.4,41.4-25.8,62.2c-1.5,3.6-3.2,5.1-7.1,4.7c-3.7-0.4-7.5-0.1-11.2-0.1c0,0.5,0,1.1,0,1.6c5,0,9.9,0,15.7,0
		c-5.8,13.7-11.2,26.4-16.6,39.1c0.3,0.2,0.7,0.4,1,0.6c0.6-1,1.4-1.9,1.9-3c4.9-11.1,9.8-22.1,14.5-33.3c1-2.3,2.1-3.2,4.7-3.2
		c12.7,0.1,25.5,0.1,38.2,0c2.7,0,3.9,0.9,5,3.4c4.6,11,9.4,22,14.2,33c0.5,1.2,1.8,2.7,2.8,2.8C895.6,124.5,900,124.3,904.9,124.3z
		 M1096.4,49.8c0-0.6,0-1.2,0-1.8c-16.8,0-33.7,0-50.6,0c0-11.7,0-22.8,0-34.1c5.2,0,10.2,0,15.2,0c4.9,0,9.8,0.1,14.6,0
		c4.8-0.2,9.6,0.7,14.3-0.5c0-0.3,0-0.6-0.1-0.9c-19.3,0-38.7,0-58,0c0,37.5,0,74.6,0,111.4c20.2,0,40.1,0,60,0c0-0.5,0-0.9,0-1.4
		c-15.4,0-30.8,0-46.1,0c0-24.7,0-48.5,0-72.5C1062.9,49.8,1079.7,50,1096.4,49.8z M283.1,13c-0.5,0-0.9,0-1.4,0
		c0,14.8,0,29.7,0,45.5c-26.3-15.3-51.6-30-77.3-44.9c0,1.5,0,2.1,0,2.7c0,34.6,0,69.2,0,103.9c0,0.5-0.1,1.1,0,1.5
		c0.3,0.7,0.8,1.3,1.2,2c0.5-0.7,1.2-1.3,1.4-2c0.3-0.8,0.1-1.7,0.1-2.6c0-27.6,0-55.2,0-82.9c0-1.4,0-2.9,0-4.9
		c1.3,0.6,2.1,0.9,2.8,1.4c23,13.6,45.9,27.3,68.9,40.9c2.1,1.3,2.8,2.8,2.7,5.2c-0.1,13.7-0.1,27.5,0,41.2c0,1.2,0.4,2.5,0.6,3.7
		c0.3-0.1,0.6-0.1,0.9-0.2C283.1,86.7,283.1,49.8,283.1,13z M347.3,103.2c-1-2-1.6-3.2-2.2-4.5c-12.8-27.6-25.5-55.2-38.4-82.8
		c-0.6-1.3-1.6-3.2-2.6-3.3c-4.3-0.4-8.6-0.2-13.4-0.2c17,37.4,33.7,74.1,50.8,111.7c14.6-37.7,28.8-74.5,43-111.2
		c-0.5-0.2-0.9-0.4-1.4-0.5C371.3,42.4,359.5,72.3,347.3,103.2z M526.3,14c0.1-0.3,0.1-0.6,0.2-1c-0.9-0.3-1.7-0.8-2.6-0.9
		c-11.9-0.7-22.4,2.8-31.1,11c-9.1,8.6-12.3,29.5,2.9,38.9c5.3,3.3,10.6,6.6,15.9,9.9c5.8,3.6,12.3,6.6,17.2,11.1
		c10.9,10,10,26.6-2,34.6c-7.7,5.1-16.2,5.7-24.8,4.6c-11.4-1.5-20.7-6.3-24.9-18c-0.3-0.7-0.9-1.3-1.4-1.9
		c-0.3,0.1-0.6,0.3-0.8,0.4c0.8,2,1.3,4.2,2.4,6.1c4.2,7.3,10.7,11.7,18.7,14c9.6,2.7,19,1.6,28.4-1.2c15.7-4.7,28.4-22.9,18.5-42.5
		c-4.5-8.9-12.3-13.8-20.7-18.2c-6.3-3.2-12.7-6.4-18.7-10.2c-6.3-4-10.5-9.8-9.7-17.8c0.8-8.3,5.2-14.1,13.2-17
		C513.2,13.6,519.6,12.7,526.3,14z M99.5,96.8c-6.8,12.6-16.8,21.1-30.7,25.1c-20.6,5.9-37.6-2.1-46.3-21.7
		c-3.1-6.9-4.6-14.2-4.9-21.8c-0.5-14.7,0.1-29.2,5-43.2C26.6,24.3,34.4,17,45.5,14.5c17.4-4,32.9,0.4,45.8,13
		c0.8,0.8,1.4,1.8,2.1,2.8c0.4-0.4,0.7-0.7,1.1-1.1c-1.9-2.1-3.5-4.5-5.7-6.2C75.3,11.7,59.3,9.4,43.2,13.6
		c-38.9,10.1-50.6,55.2-35,85c13.9,26.5,49.6,30.7,69,21.4C87.5,115.1,96,108.4,99.5,96.8z M806,96.9c-6.8,12.5-16.8,21.1-30.7,25
		c-20.7,5.9-37.7-2-46.3-21.6c-3-6.8-4.6-13.9-4.9-21.4c-0.6-14.8,0-29.5,5-43.6c3.9-11,11.7-18.2,22.8-20.8
		c17.4-4,32.9,0.3,45.8,12.9c0.8,0.8,1.3,1.9,2,2.9c0.4-0.4,0.8-0.8,1.2-1.2c-2-2.2-3.7-4.6-6-6.4c-13.4-11.1-29.3-13.3-45.3-9.1
		c-38.8,10-50.7,55.2-35.1,84.9c12.8,24.3,42.8,29.7,62.6,23.7C790.6,118.3,801.4,110.9,806,96.9z M613,80.2
		c-3.9,3.2-7.7,6.2-11.3,9.5c-5.7,5.3-7.9,15.8-5.1,22.9c3.1,7.6,10,11.9,18.9,12c6.2,0.1,11.5-2.1,16.1-5.9
		c2.6-2.1,4.9-4.5,7.6-6.9c3.2,3,6.5,5.8,9.6,8.9c3.4,3.5,4.4,2.4,7.2-0.6c0.9-0.9,1.4-2.2,2.1-3.4c-1.6-1.3-2.9-2.2-4-3.4
		c-3.3-3.6-6.5-7.4-9.8-11.1c3.1-4.2,6.3-8.3,9.4-12.4c0.8-1,1.9-1.9,2.8-2.9c-0.4-0.4-0.8-0.7-1.3-1.1c-4.2,5.1-8.5,10.3-12.9,15.6
		c-6.7-7.7-14.2-14.3-18.8-22.9c3.7-3.2,7.4-5.9,10.4-9.2c5-5.7,3.8-15.6-2.1-19.7c-5.8-4.1-16.1-3.7-21.5,0.7
		c-5.2,4.3-6.4,11.5-3.1,18.8C609.1,73,611.2,76.7,613,80.2z"/>
	<path d="M1285,63.8c-9.1,18.8-18.1,37.5-27.3,56.3c-0.8,1.6-2,3.4-3.5,4c-4.7,1.9-7,0-6.9-5.1c0.3-15.9,0.6-31.7,0.7-47.6
		c0-4.4,0.7-8.1,4.2-11.4c3.7-3.4,3.7-7.9,1.1-12c-2.3-3.7-6.5-5.5-10.7-4.5c-4.2,0.9-8,5-7.6,9.5c0.2,2.8,1.8,5.9,3.7,8.2
		c2.1,2.5,3.2,4.8,3.2,8c0.2,16.7,0.4,33.5,0.8,50.2c0.1,3.6-0.8,5.2-4.7,5.1c-14.1-0.2-28.2-0.1-42.2-0.8c12.4,0,24.9,0,38,0
		c-0.8-1.8-1.2-3-1.8-4.2c-8.4-17.3-16.7-34.6-25.2-51.9c-1.5-3-1.7-5.7-0.5-8.9c3.7-9.7,7.2-19.4,10.5-29.2
		c1.2-3.5,3.1-4.8,6.9-4.8c14.4,0.2,28.7,0.2,43.1,0c3.3,0,5,1.2,6.1,4.2c3.4,9.8,7,19.5,10.5,29.3c0.4,1.1,1,2.2,1.6,3.3
		C1285,62.3,1285,63,1285,63.8z"/>
	<path d="M1274.5,0c0.3,5.5,0.8,11,0.9,16.6c0,0.7-1.9,2-2.9,2c-18.3,0.1-36.7,0.1-55,0c-0.9,0-2.7-1.2-2.7-1.8
		c-0.2-5-0.1-10,0-14.9c0-0.6,0.8-1.2,1.2-1.8C1235.5,0,1255,0,1274.5,0z"/>
	<path d="M1017.1,123.9c-4.9,0-9.5,0-14.5,0c0-25.9,0-51.9,0-77.9c-0.3-0.1-0.6-0.2-0.9-0.3c-0.7,1.2-1.4,2.3-2,3.5
		c-12.7,23.6-25.4,47.3-38.1,70.9c-0.6,1.2-1.9,2.1-2.8,3.1c-0.8-1-1.7-2-2.4-3.2c-13.4-23.7-26.8-47.4-40.2-71
		c-0.3-0.5-0.7-1-1.9-1.4c0,25.5,0,51,0,77.4c-2.1-2.5-2.9-81-1.2-111.3c8.5,15.2,17,30.5,25.5,45.7c8.5,15.2,17,30.5,26,46.5
		c17.4-31.1,34.6-61.7,51.7-92.2c0.3,0.1,0.5,0.2,0.8,0.4C1017.1,50.5,1017.1,86.9,1017.1,123.9z"/>
	<path d="M1117.6,122.8c-4.7,0-9,0-13.7,0c0-36.8,0-73.4,0-110.6c5.2,0,10.4-0.4,15.5,0.1c9.7,0.8,19.5,1.5,29,3.3
		c18.1,3.6,32.2,19.5,34.3,37.6c2.2,18.7-7.1,34.8-24.9,43.3c-1.6,0.7-3.1,1.4-5.4,2.4c7.7,12.1,15.1,23.8,31.3,25.1
		c-7.5,0.5-14.1-1.7-19.3-7c-4.1-4.2-8-8.7-11.3-13.5c-2.2-3.2-4.7-4.1-8.2-3.7c-2.6,0.3-5.2,0.5-7.8,0.5c-1.6,0-3.2-0.3-4.8-0.7
		c-5.3-1.4-8.3-6.1-6.8-10.7c1-3.3,7.2-5.6,11.4-3.3c4.2,2.2,8.2,5.2,11.6,8.5c2,1.9,3.3,2.3,5.8,1.6c18.4-5.6,29.2-23.5,26.4-42.5
		c-3.4-22.6-16.9-32-37.4-36.7c-6.8-1.5-13.8-1.6-20.8-2.4c-3.5-0.4-4.9,0.7-4.9,4.7c0.2,33,0.1,66,0.1,99
		C1117.6,119.3,1117.6,120.8,1117.6,122.8z M1141.5,98.7c0-0.1,0.1-0.2,0.1-0.3c1.2-0.1,2.5,0.1,3.7-0.3c1.8-0.5,2.6-1.6,1.3-3.3
		c-3.3-4.4-7.2-7.9-13.1-8.2c-3-0.1-5.7,0.5-6.4,3.8c-0.6,3.1,1.6,5.3,4.3,6.2C1134.7,97.7,1138.1,98.1,1141.5,98.7z"/>
	<path d="M197.7,124.3c-4.9,0-9.2,0.2-13.4-0.1c-1.1-0.1-2.6-1.7-3.1-2.9c-4.8-10.8-9.6-21.7-14.1-32.6c-1.1-2.5-2.3-3.6-5.2-3.6
		c-12.6,0.2-25.2,0.1-37.9,0c-2.7,0-3.9,0.9-5,3.3c-4.7,11-9.5,22-14.4,32.9c-0.5,1.1-1.2,2.2-1.8,3.3c-0.4-0.2-0.8-0.4-1.3-0.6
		c5.4-12.7,10.8-25.3,16.6-39.1c-5.7,0-10.7,0-15.7,0c0-0.5,0-1.1,0-1.6c4,0,8-0.2,12.1,0.1c3.1,0.2,4.6-0.8,5.8-3.8
		c8.6-21.1,17.5-42.2,26.3-63.2c0.5-1.1,1-2.3,1.8-4C165,49.7,181.2,86.7,197.7,124.3z M121.4,82.8c14.6,0,28.5,0,43.1,0
		c-7.2-17-14.2-33.4-21.2-49.8c-0.3,0-0.7,0.1-1,0.1C135.4,49.6,128.4,66,121.4,82.8z"/>
	<path d="M473,124.3c-4.9,0-9.1,0.2-13.3-0.1c-1.1-0.1-2.6-1.6-3.1-2.8c-4.8-10.8-9.6-21.7-14.1-32.6c-1.1-2.8-2.6-3.7-5.5-3.6
		c-12.5,0.2-25,0.1-37.5,0c-2.6,0-4,0.8-5,3.2c-4.7,11.1-9.6,22.2-14.5,33.3c-0.5,1-1.3,1.9-1.9,2.9c-0.3-0.2-0.6-0.4-1-0.6
		c5.4-12.6,10.8-25.3,16.6-39c-5.7,0-10.7,0-15.7,0c0-0.6,0-1.1,0-1.7c4,0,8-0.2,12,0.1c3.3,0.2,4.8-1.1,6-4.1
		c8.6-21.1,17.5-42.2,26.3-63.2c0.4-1,0.9-2,1.7-3.7C440.3,49.7,456.4,86.7,473,124.3z M396.6,82.9c14.6,0,28.5,0,43.2,0
		c-7.2-17-14.2-33.5-21.2-49.9c-0.3,0.1-0.7,0.1-1,0.2C410.6,49.5,403.7,65.9,396.6,82.9z"/>
	<path d="M904.9,124.3c-5,0-9.3,0.2-13.6-0.1c-1-0.1-2.3-1.6-2.8-2.8c-4.9-10.9-9.6-21.9-14.2-33c-1-2.4-2.2-3.4-5-3.4
		c-12.7,0.1-25.5,0.1-38.2,0c-2.6,0-3.7,0.9-4.7,3.2c-4.7,11.1-9.6,22.2-14.5,33.3c-0.5,1.1-1.3,2-1.9,3c-0.3-0.2-0.7-0.4-1-0.6
		c5.4-12.7,10.8-25.4,16.6-39.1c-5.8,0-10.8,0-15.7,0c0-0.5,0-1.1,0-1.6c3.7,0,7.5-0.3,11.2,0.1c3.9,0.4,5.7-1.1,7.1-4.7
		c8.4-20.8,17.2-41.5,25.8-62.2c0.5-1.1,1-2.3,1.9-4.2C872.3,49.8,888.5,86.8,904.9,124.3z M850.6,33.1c-0.4,0-0.7,0-1.1,0
		c-6.9,16.5-13.9,32.9-21,49.7c14.6,0,28.5,0,43.1,0C864.5,65.9,857.6,49.5,850.6,33.1z"/>
	<path d="M1096.4,49.8c-16.8,0.2-33.5,0-50.6,0.1c0,24,0,47.8,0,72.5c15.4,0,30.8,0,46.1,0c0,0.5,0,0.9,0,1.4c-19.9,0-39.8,0-60,0
		c0-36.8,0-74,0-111.4c19.3,0,38.6,0,58,0c0,0.3,0,0.6,0.1,0.9c-4.7,1.2-9.5,0.3-14.3,0.5c-4.9,0.2-9.7,0-14.6,0c-5,0-10,0-15.2,0
		c0,11.4,0,22.4,0,34.1c16.9,0,33.7,0,50.6,0C1096.4,48.6,1096.4,49.2,1096.4,49.8z"/>
	<path d="M283.1,13c0,36.8,0,73.6,0,110.4c-0.3,0.1-0.6,0.1-0.9,0.2c-0.2-1.2-0.6-2.5-0.6-3.7c0-13.7-0.1-27.5,0-41.2
		c0-2.4-0.6-3.9-2.7-5.2c-23-13.6-46-27.3-68.9-40.9c-0.7-0.4-1.5-0.7-2.8-1.4c0,2,0,3.4,0,4.9c0,27.6,0,55.2,0,82.9
		c0,0.9,0.2,1.8-0.1,2.6c-0.2,0.7-0.9,1.3-1.4,2c-0.4-0.6-0.9-1.3-1.2-2c-0.2-0.4,0-1,0-1.5c0-34.6,0-69.2,0-103.9
		c0-0.6,0-1.2,0-2.7c25.7,15,51,29.6,77.3,44.9c0-15.8,0-30.7,0-45.5C282.2,13,282.6,13,283.1,13z"/>
	<path d="M347.3,103.2c12.2-30.9,24-60.8,35.8-90.8c0.5,0.2,0.9,0.4,1.4,0.5c-14.2,36.7-28.4,73.5-43,111.2
		c-17.1-37.6-33.8-74.3-50.8-111.7c4.9,0,9.2-0.2,13.4,0.2c1,0.1,2,2,2.6,3.3c12.8,27.6,25.6,55.2,38.4,82.8
		C345.7,99.9,346.3,101.1,347.3,103.2z"/>
	<path d="M526.3,14c-6.7-1.3-13.1-0.5-19.4,1.9c-8,3-12.3,8.7-13.2,17c-0.8,8,3.3,13.7,9.7,17.8c6,3.8,12.4,7,18.7,10.2
		c8.5,4.3,16.2,9.3,20.7,18.2c10,19.7-2.7,37.8-18.5,42.5c-9.4,2.8-18.8,4-28.4,1.2c-8-2.3-14.5-6.7-18.7-14c-1.1-1.8-1.6-4-2.4-6.1
		c0.3-0.1,0.6-0.3,0.8-0.4c0.5,0.6,1.2,1.2,1.4,1.9c4.2,11.7,13.5,16.6,24.9,18c8.6,1.1,17.1,0.5,24.8-4.6c11.9-8,12.9-24.6,2-34.6
		c-5-4.6-11.4-7.5-17.2-11.1c-5.3-3.3-10.6-6.6-15.9-9.9c-15.2-9.3-12-30.2-2.9-38.9c8.7-8.2,19.2-11.8,31.1-11
		c0.9,0.1,1.7,0.6,2.6,0.9C526.4,13.4,526.4,13.7,526.3,14z"/>
	<path d="M99.5,96.8c-3.5,11.6-12,18.2-22.4,23.1c-19.4,9.2-55.1,5.1-69-21.4c-15.5-29.7-3.8-74.9,35-85c16.1-4.2,32.1-1.9,45.5,9.3
		c2.1,1.8,3.8,4.1,5.7,6.2c-0.4,0.4-0.7,0.7-1.1,1.1c-0.7-0.9-1.2-2-2.1-2.8c-12.9-12.6-28.4-16.9-45.8-13
		C34.4,17,26.6,24.3,22.7,35.3c-5,14-5.6,28.5-5,43.2c0.3,7.6,1.8,14.8,4.9,21.8c8.6,19.6,25.6,27.5,46.3,21.7
		C82.7,118,92.7,109.4,99.5,96.8z"/>
	<path d="M806,96.9c-4.7,14.1-15.5,21.4-28.8,25.4c-19.8,5.9-49.9,0.6-62.6-23.7c-15.6-29.7-3.7-74.9,35.1-84.9
		c16-4.1,31.8-1.9,45.3,9.1c2.2,1.8,4,4.3,6,6.4c-0.4,0.4-0.8,0.8-1.2,1.2c-0.7-1-1.2-2.1-2-2.9c-12.9-12.6-28.4-16.9-45.8-12.9
		c-11.1,2.6-18.9,9.8-22.8,20.8c-5,14.1-5.6,28.8-5,43.6c0.3,7.5,1.9,14.6,4.9,21.4c8.6,19.6,25.6,27.5,46.3,21.6
		C789.2,117.9,799.2,109.4,806,96.9z"/>
	<path d="M613,80.2c-1.8-3.5-3.8-7.2-5.6-11c-3.3-7.3-2-14.5,3.1-18.8c5.4-4.5,15.7-4.8,21.5-0.7c5.8,4.1,7.1,14.1,2.1,19.7
		c-2.9,3.3-6.6,5.9-10.4,9.2c4.6,8.6,12.1,15.2,18.8,22.9c4.4-5.3,8.7-10.5,12.9-15.6c0.4,0.4,0.8,0.7,1.3,1.1
		c-0.9,0.9-2,1.8-2.8,2.9c-3.2,4.1-6.3,8.3-9.4,12.4c3.3,3.7,6.5,7.4,9.8,11.1c1.1,1.2,2.4,2.1,4,3.4c-0.7,1.2-1.2,2.4-2.1,3.4
		c-2.8,3-3.7,4.1-7.2,0.6c-3.1-3.1-6.4-5.9-9.6-8.9c-2.7,2.5-5.1,4.8-7.6,6.9c-4.7,3.9-9.9,6-16.1,5.9c-9-0.2-15.9-4.4-18.9-12
		c-2.9-7.1-0.7-17.5,5.1-22.9C605.2,86.3,609.1,83.4,613,80.2z M617.9,123.2c5.9-0.2,13-3.5,17.8-11.2c1.1-1.8,0.9-3-0.4-4.6
		c-6.4-7.5-12.7-15-18.8-22.7c-1.6-1.9-2.9-2.4-5.1-1.2c-5.3,3-9.7,7.1-12.4,12.6C592.8,108.9,601.3,123.2,617.9,123.2z M635.5,60.7
		c0-7.8-5.5-13.1-13.3-12.8c-5.5,0.2-9.3,4-9.4,9.5c-0.1,7.4,5,12.3,8.7,17.8c0.3,0.4,1.6,0.5,2.3,0.3
		C630.2,73.9,635.5,67.2,635.5,60.7z"/>
	<path class="st0" d="M1141.5,98.7c-3.4-0.7-6.9-1-10.1-2.1c-2.7-0.9-4.9-3.1-4.3-6.2c0.6-3.3,3.4-3.9,6.4-3.8
		c5.9,0.3,9.7,3.9,13.1,8.2c1.3,1.7,0.5,2.9-1.3,3.3c-1.2,0.3-2.5,0.2-3.7,0.3C1141.6,98.5,1141.6,98.6,1141.5,98.7z"/>
	<path class="st0" d="M121.4,82.8c7.1-16.8,14-33.2,20.9-49.7c0.3,0,0.7-0.1,1-0.1c7,16.4,13.9,32.8,21.2,49.8
		C149.9,82.8,136,82.8,121.4,82.8z"/>
	<path class="st0" d="M396.6,82.9c7.2-17,14.1-33.4,21-49.7c0.3-0.1,0.7-0.1,1-0.2c7,16.4,14,32.9,21.2,49.9
		C425.1,82.9,411.2,82.9,396.6,82.9z"/>
	<path class="st0" d="M850.6,33.1c7,16.4,13.9,32.7,21.1,49.7c-14.6,0-28.6,0-43.1,0c7.1-16.8,14-33.3,21-49.7
		C849.9,33.1,850.3,33.1,850.6,33.1z"/>
	<path class="st0" d="M617.9,123.2c-16.6,0-25.1-14.2-18.9-27c2.7-5.5,7.1-9.6,12.4-12.6c2.1-1.2,3.5-0.8,5.1,1.2
		c6.2,7.7,12.5,15.2,18.8,22.7c1.4,1.6,1.6,2.8,0.4,4.6C630.9,119.7,623.8,122.9,617.9,123.2z"/>
	<path class="st0" d="M635.5,60.7c0,6.5-5.3,13.2-11.7,14.8c-0.7,0.2-2,0.1-2.3-0.3c-3.7-5.5-8.7-10.4-8.7-17.8
		c0.1-5.5,3.8-9.4,9.4-9.5C630,47.6,635.4,52.9,635.5,60.7z"/>
</g>
</svg>
