<?xml version="1.0" encoding="utf-8"?>
<!-- Generator: Adobe Illustrator 24.0.1, SVG Export Plug-In . SVG Version: 6.00 Build 0)  -->
<svg version="1.1" id="Layer_1" xmlns="http://www.w3.org/2000/svg" xmlns:xlink="http://www.w3.org/1999/xlink" x="0px" y="0px"
	 viewBox="0 0 1614 168" style="enable-background:new 0 0 1614 168;" xml:space="preserve">
<style type="text/css">
	.st0{fill:#FFFFFF;}
</style>
<g>
	<path class="st0" d="M446,168c-25.7,0-51.3,0-77,0c-0.1-2-0.1-4-0.2-6c0-40.5,0-81,0-121.4c0-1.9,0-3.9,0-6c-6.5,0-12.3,0-18.4,0
		c0,30.6,0,60.9,0,91.1c-32.3-31.5-64.4-62.8-96-93.6c0,43.9,0,88.6,0,133.3c6.3,0,12.2,0,18.2,0c0-30.1,0-59.8,0-90.6
		c2,1.9,3.4,3.2,4.8,4.5c14.1,14.1,28.3,28.3,42.4,42.4c15.4,15.4,30.8,30.9,46.2,46.3c-122,0-244,0-366,0C0,112,0,56,0,0
		c507.3,0,1014.7,0,1522,0c-0.6,1.1-1.8,2.3-1.8,3.4c-0.2,6.1-0.3,12.3,0.1,18.4c0.1,1.1,2.3,2.8,3.7,2.9c3.6,0.4,7.3,0.2,11,0.2
		c20.3,0,40.6,0.1,60.8-0.1c1.9,0,5.3-1.8,5.3-2.7c0-7.4-0.6-14.7-1.1-22.1c4.7,0,9.3,0,14,0c0,27.3,0,54.7,0,82
		c-0.7-1.5-1.5-2.9-2.1-4.4c-4.7-13-9.5-25.9-14-39c-1.4-4.1-3.7-5.7-8.1-5.7c-19.3,0.2-38.7,0.2-58,0c-4.6,0-7,1.5-8.5,5.9
		c-4.6,13.5-9.8,26.9-14.3,40.5c-1,3-0.8,7.1,0.5,9.9c11,23.5,22.5,46.8,33.8,70.2c0.7,1.3,1.4,2.6,2.2,3.9c2.6,3.9,6.6,2.6,10,2
		c1-0.2,2-3.8,2-5.8c-0.2-22.7-0.4-45.3-1.1-68c-0.1-3.2-2.6-6.4-4-9.6c-1.7-3.7-4.5-7.2-4.9-11c-0.7-6,4.2-11.5,9.8-12.9
		c5.4-1.4,11.3,0.9,14.4,5.6c3.5,5.4,3.7,11.7-1.1,16c-5.3,4.8-5.9,10.2-5.9,16.6c-0.2,20.8-0.6,41.6-1,62.5
		c-0.1,6.6,3.8,9.5,9.7,6.6c1.8-0.9,3.3-3.3,4.2-5.3c12.2-25,24.2-50,36.3-75c0,27.7,0,55.3,0,83c-388,0-776,0-1164,0
		c0.3-1.3,0.4-2.6,0.9-3.8c14.9-35.1,29.8-70.1,44.6-105.2c3.4-8.1,6.8-16.2,10.4-24.8c-6.2,0-11.6,0.2-17.1-0.1
		c-3.7-0.2-5.5,1-6.9,4.6c-10.2,27.1-20.6,54.1-30.9,81.1c-0.7,1.7-1.5,3.3-2.7,6c-2.8-7-5.2-12.9-7.5-18.7c-9.2-23-18.4-46-27.7-69
		c-0.6-1.5-2.3-3.7-3.6-3.7c-6.4-0.4-12.9-0.2-20.1-0.2C408.5,79.2,427.2,123.6,446,168z M1189.9,151.7c16-22.6,31.5-44.5,46.9-66.4
		c0.5,0.2,0.9,0.3,1.4,0.5c0,26.5,0,53,0,79.7c6.3,0,11.9,0,17.9,0c0-44.7,0-89.3,0-135.2c-22.4,31.2-44,61.4-66.1,92.2
		c-21.7-30.8-42.8-60.8-64.6-91.8c0,45.8,0,90.3,0,134.7c5.9,0,11.4,0,17.5,0c0-25.7,0-51.2,0-76.7c0.4-0.1,0.8-0.2,1.2-0.3
		C1159.3,109.3,1174.4,130.2,1189.9,151.7z M1465.2,113.6c10-4.7,15.9-12.3,19.2-22.2c8.8-26.9-3.9-50.3-31.3-55.7
		c-8.4-1.7-17.2-1.2-25.8-1.4c-7.6-0.2-15.2,0-22.9,0c0,44.1,0,87.7,0,131.3c6.1,0,11.7,0,17.7,0c0.1-2.1,0.3-4.1,0.4-6
		c0-12.3,0.1-24.7,0-37c0-3.4,0.8-4.8,4.4-4.6c4.6,0.3,9.3,0.3,14,0c3.5-0.2,5.4,1.3,7.2,4.1c8.4,13.4,17,26.7,25.6,39.9
		c0.9,1.4,2.4,3.5,3.7,3.6c6.5,0.4,13.1,0.2,20.4,0.2C1486.7,148,1476.1,131.1,1465.2,113.6z M1290.3,165.5c29.4,0,58.4,0,87.8,0
		c0-5.9,0-11.4,0-17.6c-23.3,0-46.2,0-69.2,0c0-13.3,0-26.1,0-39.3c20.1,0,39.8,0,59.6,0c0-6.1,0-11.7,0-18.1c-20.1,0-39.9,0-59.6,0
		c0-13.2,0-25.6,0-38.6c22.5,0,44.5,0,66.5,0c0-6.2,0-11.8,0-17.1c-28.6,0-56.9,0-85.1,0C1290.3,78.5,1290.3,121.9,1290.3,165.5z
		 M989.4,165.8c5.4,0,10-0.2,14.7,0.1c3,0.2,4.4-1,5.5-3.7c3.4-8.7,7.1-17.2,10.5-25.9c1-2.5,2.3-3.6,5.1-3.5
		c14.2,0.2,28.3,0.2,42.5,0c2.8,0,4.1,1,5.1,3.5c3.4,8.9,6.9,17.7,10.5,26.4c0.6,1.3,2.3,2.9,3.6,3c6.1,0.3,12.2,0.1,19.1,0.1
		c-19.4-45.9-38.6-91.2-57.7-136.6c-0.4,0.1-0.9,0.1-1.3,0.2C1027.9,74.7,1008.8,119.9,989.4,165.8z M616,165.8
		c-19.4-46-38.6-91.3-58.3-138c-19.8,46.8-38.9,92.2-58.3,138c5.4,0,9.9-0.2,14.3,0.1c3.2,0.2,4.8-1,5.9-3.9
		c3.3-8.5,7-16.9,10.3-25.4c1.1-2.7,2.5-3.8,5.5-3.8c14,0.2,28,0.2,42,0c3,0,4.5,0.9,5.5,3.7c3.3,8.7,6.8,17.3,10.2,26
		c0.9,2.3,1.9,3.5,4.6,3.4C603.5,165.6,609.3,165.8,616,165.8z M118.4,165.8c5.1,0,9.5-0.2,13.7,0.1c3.5,0.2,5.4-0.8,6.6-4.2
		c3.1-8.4,6.8-16.6,10.1-25c1.1-2.9,2.7-4,5.9-3.9c13.8,0.2,27.6,0.2,41.5,0c3.2,0,4.8,1.1,5.8,4c3.2,8.6,6.6,17.1,10.1,25.5
		c0.6,1.4,2.2,3.3,3.4,3.4c6.2,0.3,12.5,0.2,19.6,0.2c-19.4-46-38.6-91.3-57.7-136.6c-0.4,0.1-0.8,0.1-1.3,0.2
		C156.9,74.6,137.8,119.9,118.4,165.8z M713.3,44.2c-19.2-10.1-38.4-14.8-58.8-6.3c-12,5-18.9,14.5-20.2,27.5
		c-1.4,13.7,3.9,24.5,15.8,31.5c6,3.5,12.7,5.8,18.9,8.9c6.6,3.3,13.8,6.2,19.6,10.7c9.5,7.3,8.9,21.2-0.6,28.5
		c-8.5,6.6-18.5,7.6-28.5,4.6c-8.2-2.5-15.9-6.2-24.2-9.6c-2.2,4-4.8,8.6-7.4,13.1c0.5,0.7,0.8,1.1,1.2,1.4
		c17.6,11.4,36.7,15.6,57.2,10.8c16.2-3.9,26.4-16.1,28.1-31.9c1.8-16.5-4.8-28.6-20.2-36.7c-4.7-2.5-9.8-4.2-14.6-6.5
		c-6.7-3.3-13.8-6.1-19.7-10.5c-10.3-7.6-8.4-22.1,3.5-26.9c5.3-2.1,11.8-3,17.4-2.2c8.6,1.3,16.9,4.5,25.9,7
		C708.6,53.8,710.8,49.4,713.3,44.2z M967.8,139.4c-23,15.9-50.8,11-64.7-3.9c-15.5-16.6-17.4-45.3-4.2-64.3
		c6.2-8.9,14.2-15.3,24.6-18.5c15.6-4.8,29.4-0.3,42.8,8.1c2.6-6,5-11.6,7.3-17.1c-25-16.3-65.6-15.5-87.8,11.9
		c-21.7,26.8-19.8,70.1,4.2,93.7c23.6,23.2,64.9,22.3,85.3,6.1C972.9,150.2,970.5,145,967.8,139.4z M97.7,139.3
		c-10.4,7.3-21.6,10.7-34.1,9.9c-12.5-0.8-23.3-5.4-31.6-14.9c-14.4-16.5-16-43-3.8-62c5.5-8.6,13-15,22.7-18.7
		c16.4-6.2,31.2-1.7,45.5,7.1c2.6-6.1,5-11.6,7.3-16.9c-23.6-16-64.3-16-86.7,10.5c-22.9,27.1-21.4,70.7,3,94.9
		c23.5,23.2,64.8,22.4,85.3,6.1C102.9,150.2,100.5,145,97.7,139.3z M826.1,115.9c-9.5-2.3-10.5-1.8-13.5,6.1
		c-1.6,4.2-3.3,8.4-5.1,13.3c-1.6-1.9-2.5-3-3.4-4.2c-6.5-8.7-13.2-17.2-19.4-26c-4.5-6.5-4.3-13-0.1-16.9c4.1-3.8,10.8-3.5,17,0.9
		c1.6,1.1,3.1,2.3,4.8,3.6c2.1-2.8,3.9-5.2,5.6-7.5c-7.7-9.8-23.7-13.4-33.5-6.8c-3.6,2.4-7,6.5-8.5,10.6
		c-3.7,10.2,2.3,18.5,7.9,26.6c-2.4,1.1-4.4,1.9-6.3,2.9c-12.1,6.1-17.9,17.3-15.1,29c2.6,11.2,13.8,19,26.7,19.4
		c10,0.3,18.6-2.7,26.2-10.8c3.9,9.8,11.1,11.2,20.2,9c-4.2-5.6-8-11-12.2-16.2c-2.2-2.7-2.4-5-1-8.1
		C819.8,132.6,822.9,124.2,826.1,115.9z"/>
	<path d="M1614,85c-12.1,25-24.2,50-36.3,75c-1,2-2.4,4.4-4.2,5.3c-5.9,2.9-9.9,0-9.7-6.6c0.4-20.8,0.9-41.6,1-62.5
		c0-6.4,0.6-11.8,5.9-16.6c4.8-4.3,4.6-10.7,1.1-16c-3.1-4.7-9-7.1-14.4-5.6c-5.6,1.5-10.4,6.9-9.8,12.9c0.4,3.8,3.2,7.3,4.9,11
		c1.4,3.2,3.9,6.4,4,9.6c0.7,22.6,0.9,45.3,1.1,68c0,2-1,5.7-2,5.8c-3.4,0.5-7.4,1.9-10-2c-0.8-1.2-1.6-2.6-2.2-3.9
		c-11.3-23.4-22.7-46.7-33.8-70.2c-1.3-2.8-1.5-6.9-0.5-9.9c4.5-13.6,9.6-27,14.3-40.5c1.5-4.3,3.9-5.9,8.5-5.9
		c19.3,0.2,38.7,0.2,58,0c4.4,0,6.7,1.6,8.1,5.7c4.5,13,9.3,26,14,39c0.6,1.5,1.4,2.9,2.1,4.4C1614,83,1614,84,1614,85z"/>
	<path d="M366,168c-15.4-15.4-30.8-30.9-46.2-46.3c-14.1-14.1-28.3-28.3-42.4-42.4c-1.4-1.4-2.8-2.6-4.8-4.5c0,30.8,0,60.5,0,90.6
		c-6,0-11.9,0-18.2,0c0-44.7,0-89.4,0-133.3c31.6,30.8,63.7,62.1,96,93.6c0-30.2,0-60.5,0-91.1c6.1,0,12,0,18.4,0c0,2.1,0,4.1,0,6
		c0,40.5,0,81,0,121.4c0,2,0.1,4,0.2,6C368,168,367,168,366,168z"/>
	<path d="M446,168c-18.8-44.4-37.5-88.8-56.6-133.8c7.2,0,13.6-0.2,20.1,0.2c1.3,0.1,3,2.2,3.6,3.7c9.3,22.9,18.5,46,27.7,69
		c2.3,5.8,4.7,11.7,7.5,18.7c1.2-2.6,2-4.3,2.7-6c10.3-27,20.8-54,30.9-81.1c1.4-3.6,3.1-4.8,6.9-4.6c5.4,0.3,10.9,0.1,17.1,0.1
		c-3.6,8.6-7,16.7-10.4,24.8c-14.9,35.1-29.8,70.1-44.6,105.2c-0.5,1.2-0.6,2.5-0.9,3.8C448.7,168,447.3,168,446,168z"/>
	<path d="M1600,0c0.4,7.4,1.1,14.7,1.1,22.1c0,1-3.4,2.7-5.3,2.7c-20.3,0.2-40.6,0.1-60.8,0.1c-3.7,0-7.3,0.3-11-0.2
		c-1.4-0.2-3.6-1.8-3.7-2.9c-0.4-6.1-0.3-12.3-0.1-18.4c0-1.2,1.2-2.3,1.8-3.4C1548,0,1574,0,1600,0z"/>
	<path d="M1189.9,151.7c-15.5-21.5-30.6-42.4-45.7-63.3c-0.4,0.1-0.8,0.2-1.2,0.3c0,25.5,0,51,0,76.7c-6.2,0-11.6,0-17.5,0
		c0-44.4,0-88.9,0-134.7c21.8,30.9,42.9,60.9,64.6,91.8c22.1-30.8,43.7-61,66.1-92.2c0,46,0,90.5,0,135.2c-6,0-11.6,0-17.9,0
		c0-26.7,0-53.2,0-79.7c-0.5-0.2-0.9-0.3-1.4-0.5C1221.4,107.3,1205.9,129.2,1189.9,151.7z"/>
	<path d="M1465.2,113.6c10.9,17.4,21.4,34.3,32.5,52.1c-7.3,0-13.9,0.2-20.4-0.2c-1.3-0.1-2.8-2.1-3.7-3.6
		c-8.6-13.3-17.2-26.5-25.6-39.9c-1.8-2.8-3.6-4.3-7.2-4.1c-4.6,0.3-9.3,0.3-14,0c-3.6-0.2-4.5,1.3-4.4,4.6c0.2,12.3,0.1,24.7,0,37
		c0,2-0.2,3.9-0.4,6c-6.1,0-11.7,0-17.7,0c0-43.7,0-87.2,0-131.3c7.7,0,15.3-0.2,22.9,0c8.6,0.2,17.5-0.2,25.8,1.4
		c27.3,5.4,40.1,28.8,31.3,55.7C1481.2,101.4,1475.2,108.9,1465.2,113.6z M1422.5,100.1c8.6,0,16.4,0.5,24.2-0.1
		c12.4-0.9,20.6-10.4,20.8-23.2c0.2-12.9-7.6-22.8-19.8-24.1c-7.3-0.8-14.6-0.6-21.9-0.6c-1.1,0-3.1,1.9-3.2,3
		C1422.4,70,1422.5,84.8,1422.5,100.1z"/>
	<path d="M1290.3,165.5c0-43.6,0-87,0-130.8c28.2,0,56.4,0,85.1,0c0,5.4,0,10.9,0,17.1c-22,0-44,0-66.5,0c0,13.1,0,25.5,0,38.6
		c19.7,0,39.5,0,59.6,0c0,6.4,0,12,0,18.1c-19.8,0-39.6,0-59.6,0c0,13.2,0,25.9,0,39.3c23,0,45.9,0,69.2,0c0,6.2,0,11.7,0,17.6
		C1348.8,165.5,1319.7,165.5,1290.3,165.5z"/>
	<path d="M989.4,165.8c19.4-45.8,38.5-91.1,57.6-136.4c0.4-0.1,0.9-0.1,1.3-0.2c19.2,45.3,38.3,90.6,57.7,136.6
		c-6.9,0-13,0.2-19.1-0.1c-1.3-0.1-3.1-1.7-3.6-3c-3.7-8.7-7.2-17.5-10.5-26.4c-1-2.5-2.3-3.6-5.1-3.5c-14.2,0.1-28.3,0.1-42.5,0
		c-2.8,0-4.1,1-5.1,3.5c-3.4,8.7-7.1,17.2-10.5,25.9c-1.1,2.7-2.4,3.9-5.5,3.7C999.4,165.5,994.8,165.8,989.4,165.8z M1047.7,72.3
		c-0.5,0-1,0.1-1.5,0.1c-5.9,14.4-11.8,28.9-17.9,43.7c12.6,0,24.1,0,36.6,0C1058.9,101.1,1053.3,86.7,1047.7,72.3z"/>
	<path d="M616,165.8c-6.7,0-12.6-0.2-18.4,0.1c-2.7,0.1-3.7-1.1-4.6-3.4c-3.3-8.7-6.9-17.3-10.2-26c-1-2.8-2.5-3.7-5.5-3.7
		c-14,0.2-28,0.2-42,0c-3,0-4.4,1.1-5.5,3.8c-3.3,8.5-7,16.9-10.3,25.4c-1.1,2.9-2.7,4.1-5.9,3.9c-4.5-0.3-9-0.1-14.3-0.1
		c19.4-45.8,38.5-91.2,58.3-138C577.4,74.5,596.6,119.8,616,165.8z M574.9,116.2c-6-15.1-11.6-29.6-17.3-44.1
		c-0.4,0.1-0.9,0.1-1.3,0.2c-5.9,14.4-11.9,28.9-18,43.9C550.7,116.2,562.2,116.2,574.9,116.2z"/>
	<path d="M118.4,165.8c19.4-45.9,38.5-91.1,57.6-136.4c0.4-0.1,0.8-0.1,1.3-0.2c19.1,45.3,38.3,90.6,57.7,136.6
		c-7,0-13.3,0.2-19.6-0.2c-1.2-0.1-2.8-2-3.4-3.4c-3.5-8.4-6.9-16.9-10.1-25.5c-1.1-2.9-2.6-4-5.8-4c-13.8,0.2-27.6,0.2-41.5,0
		c-3.2,0-4.7,1-5.9,3.9c-3.2,8.4-6.9,16.6-10.1,25c-1.3,3.4-3.2,4.5-6.6,4.2C127.9,165.5,123.5,165.8,118.4,165.8z M193.9,116.1
		c-5.9-15.1-11.6-29.6-17.3-44c-0.4,0.1-0.9,0.1-1.3,0.2c-5.9,14.5-11.9,28.9-18,43.8C169.9,116.1,181.4,116.1,193.9,116.1z"/>
	<path d="M713.3,44.2c-2.6,5.2-4.7,9.7-6.6,13.5c-9-2.5-17.3-5.7-25.9-7c-5.6-0.8-12.1,0-17.4,2.2c-11.9,4.8-13.8,19.3-3.5,26.9
		c5.9,4.4,13,7.2,19.7,10.5c4.8,2.3,9.9,4,14.6,6.5c15.4,8.1,21.9,20.3,20.2,36.7c-1.7,15.8-11.9,28-28.1,31.9
		c-20.5,4.9-39.6,0.6-57.2-10.8c-0.4-0.3-0.6-0.7-1.2-1.4c2.6-4.5,5.1-9.1,7.4-13.1c8.3,3.3,16,7.1,24.2,9.6c10,3,19.9,2,28.5-4.6
		c9.5-7.3,10.1-21.2,0.6-28.5c-5.8-4.5-12.9-7.4-19.6-10.7c-6.2-3.1-12.9-5.4-18.9-8.9c-12-6.9-17.2-17.7-15.8-31.5
		c1.3-13,8.2-22.5,20.2-27.5C674.9,29.3,694.1,34.1,713.3,44.2z"/>
	<path d="M967.8,139.4c2.7,5.6,5.2,10.8,7.6,15.9c-20.4,16.2-61.7,17.1-85.3-6.1c-24-23.6-25.9-66.9-4.2-93.7
		c22.2-27.4,62.8-28.2,87.8-11.9c-2.4,5.5-4.8,11.1-7.3,17.1c-13.4-8.4-27.2-12.9-42.8-8.1c-10.4,3.2-18.5,9.7-24.6,18.5
		c-13.2,19-11.3,47.7,4.2,64.3C917,150.4,944.8,155.3,967.8,139.4z"/>
	<path d="M97.7,139.3c2.7,5.7,5.2,10.9,7.6,16c-20.5,16.3-61.8,17-85.3-6.1c-24.5-24.2-26-67.8-3-94.9
		c22.5-26.6,63.1-26.5,86.7-10.5c-2.3,5.4-4.7,10.8-7.3,16.9C82.2,51.9,67.3,47.3,51,53.6c-9.7,3.7-17.2,10.1-22.7,18.7
		c-12.2,18.9-10.6,45.4,3.8,62c8.3,9.5,19.1,14.1,31.6,14.9C76.1,150,87.3,146.7,97.7,139.3z"/>
	<path d="M826.1,115.9c-3.3,8.4-6.4,16.8-9.8,25c-1.3,3.1-1.1,5.4,1,8.1c4.2,5.1,8,10.6,12.2,16.2c-9.1,2.2-16.3,0.9-20.2-9
		c-7.6,8.1-16.2,11.1-26.2,10.8c-12.8-0.4-24-8.2-26.7-19.4c-2.8-11.8,3-22.9,15.1-29c1.9-1,3.9-1.8,6.3-2.9
		c-5.7-8.2-11.7-16.4-7.9-26.6c1.5-4.1,4.9-8.1,8.5-10.6c9.7-6.5,25.8-3,33.5,6.8c-1.7,2.3-3.5,4.7-5.6,7.5
		c-1.7-1.3-3.2-2.5-4.8-3.6c-6.1-4.4-12.9-4.8-17-0.9c-4.2,3.9-4.4,10.4,0.1,16.9c6.2,8.9,12.9,17.4,19.4,26
		c0.9,1.2,1.9,2.3,3.4,4.2c1.9-4.9,3.5-9.1,5.1-13.3C815.6,114.1,816.6,113.6,826.1,115.9z M786.4,156.2c0.2,0.4,0.4,0.8,0.6,1.2
		c4.3-2.2,8.7-4.3,12.9-6.8c2.2-1.3,2.4-3.2,0.6-5.4c-4.7-6-9.4-12.1-13.8-18.4c-1.9-2.6-4-2.4-6.5-1.5c-8,2.8-12.7,10.4-11.3,18.3
		C770,150.9,777.5,156.2,786.4,156.2z"/>
	<path class="st0" d="M1422.5,100.1c0-15.3-0.1-30.1,0.1-44.9c0-1.1,2-3,3.2-3c7.3-0.1,14.7-0.2,21.9,0.6
		c12.2,1.3,19.9,11.2,19.8,24.1c-0.2,12.8-8.4,22.3-20.8,23.2C1438.9,100.6,1431.1,100.1,1422.5,100.1z"/>
	<path class="st0" d="M1047.7,72.3c5.6,14.4,11.3,28.8,17.2,43.8c-12.4,0-24,0-36.6,0c6.1-14.8,12-29.2,17.9-43.7
		C1046.7,72.4,1047.2,72.4,1047.7,72.3z"/>
	<path class="st0" d="M574.9,116.2c-12.7,0-24.2,0-36.7,0c6.2-15,12.1-29.4,18-43.9c0.4-0.1,0.9-0.1,1.3-0.2
		C563.3,86.6,568.9,101.1,574.9,116.2z"/>
	<path class="st0" d="M193.9,116.1c-12.4,0-24,0-36.6,0c6.1-14.9,12-29.4,18-43.8c0.4-0.1,0.9-0.1,1.3-0.2
		C182.2,86.6,187.9,101.1,193.9,116.1z"/>
	<path class="st0" d="M786.4,156.2c-8.9,0.1-16.4-5.3-17.6-12.5c-1.3-8,3.3-15.5,11.3-18.3c2.5-0.9,4.7-1.1,6.5,1.5
		c4.5,6.2,9.1,12.3,13.8,18.4c1.8,2.2,1.6,4.1-0.6,5.4c-4.2,2.4-8.6,4.5-12.9,6.8C786.8,157,786.6,156.6,786.4,156.2z"/>
</g>
</svg>
